<?xml version="1.0" encoding="UTF-8" standalone="no"?><!-- Generator: Gravit.io --><svg xmlns="http://www.w3.org/2000/svg" xmlns:xlink="http://www.w3.org/1999/xlink" style="isolation:isolate" viewBox="0 0 1080 1080" width="1080pt" height="1080pt"><defs><clipPath id="_clipPath_B5zSNeXiG6lJa0sCeyK5msPzMLrxYd70"><rect width="1080" height="1080"/></clipPath></defs><g clip-path="url(#_clipPath_B5zSNeXiG6lJa0sCeyK5msPzMLrxYd70)"><rect x="0" y="0" width="1080" height="1080" transform="matrix(1,0,0,1,0,0)" fill="rgb(66,147,229)"/><clipPath id="_clipPath_ezYeM7vFMcG4WLTlpiF2q7wwAVu9ulxL"><rect x="0" y="0" width="1080" height="1080" transform="matrix(1,0,0,1,0,0)" fill="rgb(66,147,229)"/></clipPath><g clip-path="url(#_clipPath_ezYeM7vFMcG4WLTlpiF2q7wwAVu9ulxL)"><g><ellipse vector-effect="non-scaling-stroke" cx="539.9999999999995" cy="1421.5555399648706" rx="338.9195804516871" ry="37.22238166810439" fill="rgb(0,0,0)" fill-opacity="0.2"/><g><path d=" M 516.847 1196.618 L 516.847 1362.516 C 516.847 1395.101 490.393 1421.556 457.808 1421.556 L 457.808 1421.556 C 425.223 1421.556 398.769 1395.101 398.769 1362.516 L 398.769 1170.2 L 398.769 1170.2 C 341.986 1136.792 303.843 1075.041 303.843 1004.451 L 303.843 969.01 L 118.799 969.01 C 91.228 969.01 68.843 946.625 68.843 919.053 L 68.843 919.053 L 68.843 919.053 C 68.843 891.482 91.228 869.097 118.799 869.097 L 303.843 869.097 L 303.843 812.284 L 776.157 812.284 L 776.157 869.097 L 961.201 869.097 C 988.772 869.097 1011.157 891.482 1011.157 919.053 L 1011.157 919.053 C 1011.157 946.625 988.772 969.01 961.201 969.01 L 776.157 969.01 L 776.157 969.01 L 776.157 1004.451 C 776.157 1075.041 738.014 1136.792 681.231 1170.2 L 681.231 1362.516 C 681.231 1395.101 654.777 1421.556 622.192 1421.556 L 622.192 1421.556 C 589.607 1421.556 563.153 1395.101 563.153 1362.516 L 563.153 1196.618 L 563.153 1196.618 L 516.847 1196.618 Z " fill="rgb(233,233,233)"/><g><g><path d=" M 322.241 1086.554 C 338.804 1121.513 365.608 1150.69 398.769 1170.2 L 398.769 1170.2 L 398.769 1321.643 L 398.769 1362.516 C 398.769 1395.101 425.223 1421.556 457.808 1421.556 L 457.808 1421.556 C 490.393 1421.556 516.847 1395.101 516.847 1362.516 L 516.847 1321.643 L 516.847 1196.618 L 563.153 1196.618 L 563.153 1196.618 L 563.153 1321.643 L 563.153 1362.516 C 563.153 1395.101 589.607 1421.556 622.192 1421.556 L 622.192 1421.556 C 654.777 1421.556 681.231 1395.101 681.231 1362.516 L 681.231 1321.643 L 681.231 1170.2 C 714.392 1150.69 741.196 1121.513 757.759 1086.554 L 322.241 1086.554 Z " fill="rgb(20,15,45)"/><path d=" M 322.241 1086.554 C 310.444 1061.652 303.843 1033.816 303.843 1004.451 L 303.843 969.01 L 118.799 969.01 C 91.228 969.01 68.843 946.625 68.843 919.053 L 68.843 919.053 L 68.843 919.053 C 68.843 891.482 91.228 869.097 118.799 869.097 L 303.843 869.097 L 303.843 812.284 L 776.157 812.284 L 776.157 869.097 L 961.201 869.097 C 988.772 869.097 1011.157 891.482 1011.157 919.053 L 1011.157 919.053 C 1011.157 946.625 988.772 969.01 961.201 969.01 L 776.157 969.01 L 776.157 969.01 L 776.157 1004.451 C 776.157 1033.816 769.556 1061.652 757.759 1086.554 L 322.241 1086.554 Z " fill="rgb(233,233,233)"/><path d=" M 322.241 1086.554 C 310.444 1061.652 303.843 1033.816 303.843 1004.451 L 303.843 969.01 L 193.244 969.01 L 193.244 869.097 L 303.843 869.097 L 303.843 812.284 L 776.157 812.284 L 776.157 869.097 L 886.756 869.097 L 886.756 969.01 L 776.157 969.01 L 776.157 969.01 L 776.157 1004.451 C 776.157 1033.816 769.556 1061.652 757.759 1086.554 L 322.241 1086.554 Z " fill="rgb(255,255,255)"/></g></g><g><g><polygon points="540,947.46,461.637,869.097,618.363,869.097" fill="rgb(66,147,229)"/><polygon points="540,892.606,487.105,945.501,592.895,945.501" fill="rgb(66,147,229)"/><polygon points="540,1082.636,487.105,945.501,592.895,945.501" fill="rgb(66,147,229)"/></g></g></g><g><path d=" M 540 896.524 C 63.729 896.524 90.393 545.573 90.393 536.055 C 90.393 273.313 291.855 60 540 60 C 788.145 60 989.607 273.313 989.607 536.055 C 989.607 545.573 1016.271 896.524 540 896.524 Z " fill="rgb(233,233,233)"/><g><g><path d=" M 510.05 332.028 C 418.206 331.137 328.731 326.252 263.413 317.411 C 230.734 385.538 187.993 507.403 90.122 536.055 L 90.122 536.055 L 90.122 536.055 C 90.122 440.874 116.561 352.18 162.093 277.775 C 162.337 277.135 162.673 276.488 163.076 275.835 C 243.393 145.906 382.067 60 539.541 60 C 539.569 60 539.597 60 539.624 60 C 541.727 60 543.826 60.016 545.925 60.036 C 550.568 60.116 555.197 60.259 559.807 60.482 C 561.212 60.533 562.612 60.605 564.004 60.708 C 567.36 60.873 570.7 61.101 574.023 61.392 C 575.137 61.456 576.243 61.549 577.345 61.66 C 586.554 62.455 595.682 63.558 604.719 64.957 C 604.891 64.973 605.06 64.999 605.225 65.039 C 609.654 65.71 614.058 66.463 618.433 67.307 C 618.826 67.356 619.212 67.429 619.59 67.526 C 829.698 107.453 989.337 302.17 989.337 536.055 L 989.337 536.055 C 891.635 507.453 848.873 385.96 816.22 317.786 C 759.336 325.406 684.096 330.005 604.9 331.571 C 608.592 340.876 618.32 353.205 637.068 369.533 C 671.368 399.408 615.504 408.656 578.911 467.487 C 575.22 420.469 599.481 412.633 552.464 383.247 C 525.556 366.43 510.691 349.171 510.05 332.028 Z " fill="rgb(20,15,45)"/></g></g><g><g><g><path d=" M 975.866 418.982 C 1010.797 425.282 1037.334 455.867 1037.334 492.6 C 1037.334 524.358 1017.5 551.519 989.543 562.34 C 990.24 547.09 989.607 537.521 989.607 536.055 C 989.607 495.661 984.846 456.436 975.866 418.982 Z " fill="rgb(233,233,233)"/></g><g><path d=" M 104.134 418.982 C 69.203 425.282 42.666 455.867 42.666 492.6 C 42.666 524.358 62.5 551.519 90.457 562.34 C 89.76 547.09 90.393 537.521 90.393 536.055 C 90.393 495.661 95.154 456.436 104.134 418.982 Z " fill="rgb(233,233,233)"/></g></g></g><g><g><path d=" M 645.41 651.64 C 601.759 684.536 475.869 682.638 435.381 651.64 Q 477.766 753.512 539.13 753.512 Q 600.494 753.512 645.41 651.64 Z " fill="rgb(20,15,45)"/></g></g><g><g><g><path d="M 301.973 428.306 L 301.973 428.306 C 323.597 428.306 341.154 445.862 341.154 467.487 L 341.154 467.487 C 341.154 489.112 323.597 506.669 301.973 506.669 L 301.973 506.669 C 280.348 506.669 262.791 489.112 262.791 467.487 L 262.791 467.487 C 262.791 445.862 280.348 428.306 301.973 428.306 Z" style="stroke:none;fill:#140F2D;stroke-miterlimit:10;"/><path d="M 285.321 442.019 L 285.321 442.019 C 290.186 442.019 294.136 445.969 294.136 450.835 L 294.136 450.835 C 294.136 455.701 290.186 459.651 285.321 459.651 L 285.321 459.651 C 280.455 459.651 276.505 455.701 276.505 450.835 L 276.505 450.835 C 276.505 445.969 280.455 442.019 285.321 442.019 Z" style="stroke:none;fill:#E9E9E9;stroke-miterlimit:10;"/></g><g><path d="M 778.027 428.306 L 778.027 428.306 C 799.652 428.306 817.209 445.862 817.209 467.487 L 817.209 467.487 C 817.209 489.112 799.652 506.669 778.027 506.669 L 778.027 506.669 C 756.403 506.669 738.846 489.112 738.846 467.487 L 738.846 467.487 C 738.846 445.862 756.403 428.306 778.027 428.306 Z" style="stroke:none;fill:#140F2D;stroke-miterlimit:10;"/><path d="M 761.375 442.019 L 761.375 442.019 C 766.241 442.019 770.191 445.969 770.191 450.835 L 770.191 450.835 C 770.191 455.701 766.241 459.651 761.375 459.651 L 761.375 459.651 C 756.51 459.651 752.559 455.701 752.559 450.835 L 752.559 450.835 C 752.559 445.969 756.51 442.019 761.375 442.019 Z" style="stroke:none;fill:#E9E9E9;stroke-miterlimit:10;"/></g></g></g><g><g><path d=" M 488.999 612.105 L 475.089 612.105 L 475.089 612.105 C 510.915 672.655 569.085 672.655 604.911 612.105 L 604.911 612.105 L 591.001 612.105 L 591.001 612.105 C 562.853 659.68 517.147 659.68 488.999 612.105 L 488.999 612.105 Z " fill="none"/></g></g><g><g><path d=" M 190.306 618.336 C 190.306 591.305 222.785 569.359 262.791 569.359 C 302.797 569.359 335.277 591.305 335.277 618.336 C 335.277 645.367 302.797 667.313 262.791 667.313 C 222.785 667.313 190.306 645.367 190.306 618.336 Z  M 889.694 618.336 C 889.694 591.305 857.215 569.359 817.209 569.359 C 777.203 569.359 744.723 591.305 744.723 618.336 C 744.723 645.367 777.203 667.313 817.209 667.313 C 857.215 667.313 889.694 645.367 889.694 618.336 Z " fill-rule="evenodd" fill="none"/></g></g></g></g></g></g></svg>